<svg width="111" height="56" viewBox="0 0 111 56" fill="none" xmlns="http://www.w3.org/2000/svg">
<g clip-path="url(#clip0_140_346)">
<path d="M51.84 12.206C51.84 12.206 51.4033 11.9124 50.5755 11.3449C49.7411 10.7903 48.5092 9.96834 46.8796 8.98977C46.0648 8.50049 45.1523 7.97206 44.1419 7.43712C43.1316 6.90217 42.0104 6.35417 40.7915 5.87794C40.1853 5.64308 39.5465 5.42127 38.8947 5.25818C38.7317 5.21904 38.5688 5.17337 38.3993 5.14727C38.3146 5.1277 38.2364 5.11466 38.1516 5.09508C38.0669 5.08204 37.9887 5.06899 37.9039 5.05594C37.741 5.02332 37.578 5.0168 37.4085 4.99723C37.3238 4.9907 37.2456 4.9907 37.1674 4.98418C37.0891 4.98418 37.0044 4.97766 36.9262 4.98418C36.848 4.98418 36.7697 4.98418 36.685 4.9907C36.6003 4.99723 36.509 5.00375 36.4177 5.01028C36.3265 5.0168 36.2418 5.02332 36.1505 5.02985C36.0592 5.04289 35.9745 5.05594 35.8832 5.06247C35.792 5.07551 35.7073 5.08204 35.616 5.10161C35.5247 5.11466 35.44 5.13423 35.3487 5.14727C35.1728 5.17337 34.9968 5.21904 34.8142 5.25818C34.1038 5.4278 33.3998 5.6757 32.7219 6.01494C32.044 6.35417 31.3856 6.77169 30.7794 7.2675C30.1732 7.7633 29.6192 8.34392 29.1238 8.98977C28.6414 9.63562 28.2243 10.3532 27.8983 11.1165C27.5855 11.8863 27.3443 12.6953 27.2335 13.5434C27.1683 13.9609 27.1487 14.3914 27.1422 14.822C27.1487 15.0373 27.1422 15.2526 27.1618 15.4744C27.1683 15.5853 27.1748 15.6897 27.1813 15.8006C27.1944 15.9115 27.2074 16.0159 27.2204 16.1268C27.2335 16.2377 27.2465 16.3421 27.2661 16.453C27.2856 16.5573 27.2987 16.6682 27.3247 16.7726C27.3769 16.9879 27.416 17.2032 27.4747 17.412C27.5855 17.836 27.7354 18.2535 27.9049 18.658C28.5958 20.2889 29.7821 21.7568 31.3074 22.781C32.8262 23.8118 34.6774 24.3859 36.5742 24.3598C36.7046 24.3598 36.7828 24.3467 36.874 24.3402C36.9653 24.3271 37.05 24.3402 37.1543 24.3076C37.2586 24.288 37.3564 24.2684 37.4607 24.2554C37.565 24.2358 37.6758 24.2032 37.7866 24.1771C38.0017 24.1314 38.2364 24.0466 38.471 23.9749C38.5883 23.9422 38.7057 23.8901 38.823 23.8444L39.1815 23.7074C40.1462 23.3094 41.137 22.7941 42.1278 22.22C44.1093 21.0653 46.0844 19.6757 48.0399 18.1883C49.0176 17.4446 49.9888 16.6748 50.9601 15.8789C51.4424 15.4809 51.9248 15.0764 52.4071 14.672C52.6418 14.4697 52.883 14.261 53.1241 14.0587L53.4761 13.7521L53.8151 13.452L54.2062 13.1063L54.5842 12.7736C54.8384 12.5583 55.0927 12.343 55.3404 12.1277C55.8488 11.6971 56.3572 11.2796 56.8656 10.8621C57.889 10.0336 58.9189 9.23115 59.9683 8.46135C62.0672 6.91522 64.2117 5.46694 66.4997 4.21438C67.6469 3.58809 68.8332 3.014 70.1108 2.53777L70.5997 2.36815C70.7626 2.31596 70.9191 2.25072 71.0951 2.20506C71.4405 2.1072 71.773 2.00934 72.138 1.93758C72.3205 1.89844 72.49 1.8593 72.6855 1.82668C72.8746 1.80058 73.0701 1.77449 73.2591 1.74839C73.4417 1.71577 73.6568 1.71577 73.8588 1.70925C74.0609 1.70273 74.2825 1.68968 74.4455 1.70925C75.8534 1.74839 77.2483 2.00934 78.5455 2.47905C78.8714 2.58996 79.1908 2.72696 79.5037 2.85743C79.81 3.00096 80.1229 3.14448 80.4162 3.3141C81.0159 3.63376 81.583 3.99909 82.111 4.40357C84.249 6.00841 85.8069 8.20692 86.6347 10.5685C86.8433 11.1557 87.0127 11.7558 87.1236 12.356C87.1887 12.6561 87.2278 12.9562 87.2735 13.2563C87.293 13.4064 87.3061 13.5564 87.3191 13.7065C87.3321 13.8565 87.3517 14.0065 87.3517 14.1566C87.3582 14.3066 87.3647 14.4567 87.3712 14.6067C87.3712 14.7568 87.3712 14.9068 87.3712 15.0504C87.3712 15.3439 87.3517 15.644 87.3321 15.9376C87.28 16.5247 87.2083 17.1053 87.0779 17.6664C86.8433 18.795 86.4391 19.8649 85.9372 20.85C85.4288 21.8285 84.8096 22.7223 84.1056 23.5051C83.4016 24.288 82.6259 24.9665 81.7981 25.5275C80.9703 26.0886 80.1033 26.5387 79.2169 26.8779C78.3304 27.2172 77.4309 27.439 76.5509 27.5629C76.3293 27.5956 76.1076 27.6216 75.8925 27.6412C75.7817 27.6477 75.6774 27.6608 75.5666 27.6673C75.4558 27.6738 75.3515 27.6738 75.2407 27.6804C75.1299 27.6804 75.0256 27.6804 74.9213 27.6869C74.817 27.6869 74.7062 27.6869 74.6019 27.6869C74.4976 27.6869 74.3933 27.6869 74.2825 27.6804C74.1717 27.6804 74.0544 27.6673 73.9436 27.6543C73.8328 27.6477 73.7219 27.6347 73.6111 27.6151C73.5003 27.5956 73.396 27.5825 73.2852 27.5629C73.0766 27.5173 72.868 27.4846 72.6725 27.4259C72.5747 27.3998 72.4769 27.3737 72.3727 27.3476C72.2749 27.315 72.1836 27.2889 72.0858 27.2563C71.8968 27.1976 71.7143 27.1324 71.5318 27.0671C70.8083 26.7997 70.1434 26.4865 69.5242 26.1603C68.2857 25.5079 67.1971 24.8164 66.2324 24.151C65.2612 23.4856 64.4073 22.8397 63.6512 22.2526C62.1389 21.0653 61.0243 20.0867 60.2682 19.4213C59.5186 18.7493 59.134 18.3905 59.134 18.3905C59.134 18.3905 59.5707 18.6841 60.3986 19.2517C61.2329 19.8062 62.4648 20.6282 64.0944 21.6067C64.9092 22.096 65.8218 22.6244 66.8321 23.1594C67.8424 23.6943 68.9636 24.2423 70.1825 24.7186C70.7887 24.9534 71.4275 25.1752 72.0793 25.3383C72.2423 25.3775 72.4052 25.4231 72.5747 25.4492C72.6595 25.4688 72.7377 25.4818 72.8224 25.5014C72.9072 25.5145 72.9854 25.5275 73.0701 25.5406C73.2331 25.5732 73.396 25.5797 73.5655 25.5993C73.6502 25.6058 73.7285 25.6058 73.8067 25.6123C73.8849 25.6123 73.9696 25.6188 74.0479 25.6123C74.1261 25.6123 74.2043 25.6123 74.289 25.6058C74.3738 25.5993 74.465 25.5928 74.5563 25.5862C74.6475 25.5797 74.7323 25.5732 74.8235 25.5667C74.9148 25.5536 74.9995 25.5406 75.0908 25.534C75.182 25.521 75.2668 25.5145 75.358 25.4949C75.4493 25.4819 75.534 25.4623 75.6253 25.4492C75.8013 25.4231 75.9773 25.3775 76.1598 25.3383C76.8703 25.1687 77.5743 24.9208 78.2522 24.5816C78.9301 24.2423 79.5884 23.8248 80.1946 23.329C80.8008 22.8332 81.3549 22.2526 81.8503 21.6067C82.3326 20.9609 82.7498 20.2433 83.0757 19.48C83.3886 18.7102 83.6297 17.9012 83.7406 17.0531C83.8057 16.6356 83.8253 16.2051 83.8318 15.7745C83.8253 15.5592 83.8318 15.3439 83.8123 15.1221C83.8057 15.0112 83.7992 14.9068 83.7927 14.7959C83.7797 14.685 83.7666 14.5806 83.7536 14.4697C83.7406 14.3588 83.7275 14.2545 83.708 14.1435C83.6884 14.0392 83.6754 13.9283 83.6493 13.8239C83.5972 13.6086 83.558 13.3933 83.4994 13.1846C83.3886 12.7605 83.2386 12.343 83.0692 11.9385C82.3782 10.3076 81.1919 8.83973 79.6666 7.81549C78.1479 6.78474 76.2967 6.21065 74.3998 6.23674C74.2695 6.23674 74.1913 6.24979 74.1 6.25631C74.0087 6.26936 73.924 6.25632 73.8197 6.28893C73.7154 6.30851 73.6176 6.32808 73.5134 6.34112C73.4091 6.3607 73.2982 6.39331 73.1874 6.41941C72.9723 6.46508 72.7377 6.54988 72.503 6.62165C72.3857 6.65426 72.2684 6.70645 72.151 6.75212L71.7925 6.88912C70.8278 7.28707 69.837 7.80245 68.8463 8.37654C66.8647 9.53124 64.8897 10.9208 62.9342 12.4082C61.9564 13.1519 60.9852 13.9217 60.014 14.7176C59.5316 15.1156 59.0493 15.5201 58.5669 15.9245C58.3322 16.1268 58.0911 16.3355 57.8499 16.5378L57.4979 16.8444L57.159 17.1445L56.7679 17.4902L56.3898 17.823C56.1356 18.0382 55.8814 18.2535 55.6337 18.4688C55.1252 18.8994 54.6168 19.3169 54.1084 19.7344C53.085 20.5629 52.0551 21.3654 51.0057 22.1352C48.9068 23.6813 46.7623 25.1296 44.4744 26.3821C43.3271 27.0084 42.1408 27.5825 40.8632 28.0587L40.3744 28.2284C40.2114 28.2805 40.055 28.3458 39.879 28.3915C39.5335 28.4893 39.2011 28.5872 38.836 28.6589C38.6535 28.6981 38.484 28.7372 38.2885 28.7698C38.0995 28.7959 37.9039 28.822 37.7149 28.8481C37.5324 28.8807 37.3173 28.8807 37.1152 28.8873C36.9131 28.8938 36.6915 28.9068 36.5286 28.8873C35.1206 28.8481 33.7257 28.5872 32.4286 28.1175C32.1026 28.0065 31.7832 27.8695 31.4704 27.7391C31.164 27.5956 30.8511 27.452 30.5578 27.2824C29.9581 26.9627 29.391 26.5974 28.863 26.1929C26.725 24.5881 25.1672 22.3896 24.3394 20.028C24.1308 19.4408 23.9613 18.8407 23.8505 18.2405C23.7853 17.9404 23.7462 17.6403 23.7006 17.3402C23.681 17.1901 23.668 17.0401 23.6549 16.8901C23.6419 16.74 23.6223 16.59 23.6223 16.4399C23.6158 16.2899 23.6093 16.1398 23.6028 15.9898C23.6028 15.8397 23.6028 15.6897 23.6028 15.5462C23.6028 15.2526 23.6223 14.9525 23.6419 14.6589C23.694 14.0718 23.7657 13.4912 23.8961 12.9301C24.1308 11.8015 24.5349 10.7316 25.0368 9.74653C25.5452 8.76796 26.1645 7.87421 26.8684 7.09136C27.5724 6.3085 28.3481 5.63003 29.1759 5.06899C30.0037 4.50795 30.8707 4.05781 31.7572 3.71857C32.6437 3.37933 33.5432 3.15753 34.4232 3.03357C34.6448 3.00096 34.8664 2.97486 35.0815 2.95529C35.1923 2.94877 35.2966 2.93572 35.4074 2.92919C35.5182 2.92267 35.6225 2.92267 35.7333 2.91615C35.8441 2.91615 35.9484 2.90962 36.0527 2.90962C36.157 2.90962 36.2678 2.90962 36.3721 2.90962C36.4764 2.90962 36.5807 2.90962 36.6915 2.91615C36.8023 2.91615 36.9197 2.92919 37.0305 2.94224C37.1413 2.94877 37.2521 2.96181 37.3629 2.98138C37.4737 3.00096 37.578 3.014 37.6888 3.03357C37.8974 3.07924 38.106 3.11186 38.3015 3.17057C38.3993 3.19667 38.4971 3.22276 38.6014 3.24886C38.6992 3.28148 38.7904 3.30757 38.8882 3.34019C39.0772 3.39891 39.2597 3.46414 39.4422 3.52938C40.1658 3.79685 40.8306 4.11 41.4499 4.43618C42.6883 5.08856 43.7769 5.78008 44.7416 6.4455C45.7128 7.11093 46.5667 7.75678 47.3229 8.34392C48.8351 9.53124 49.9497 10.5098 50.7058 11.1752C51.4555 11.8472 51.84 12.206 51.84 12.206Z" fill="white"/>
<path d="M53.1436 11.7363L53.5477 11.397L54.3365 10.7381C54.9296 10.2488 55.4576 9.82479 55.9465 9.43989C56.7547 8.80056 57.6347 8.13514 58.6255 7.40447C58.6255 7.40447 58.6255 7.40447 58.632 7.40447V0H48.5156V0.404473H52.1593V12.5843L52.407 12.3756L53.1436 11.7363Z" fill="white"/>
<path d="M67.347 27.5368C66.3563 33.7801 63.6316 36.8528 60.3203 36.8528H58.6386V18.6123L58.4235 18.8015L58.0194 19.1407L57.2307 19.7996C56.6375 20.2889 56.116 20.7064 55.6206 21.0979C54.7146 21.8155 53.7629 22.5331 52.72 23.2964C52.5505 23.4203 52.3615 23.5117 52.1659 23.5769V36.8462L48.5222 37.2507V37.6552H67.9402V27.5303H67.347V27.5368Z" fill="white"/>
<path d="M3.57202 46.2078C3.57202 45.6272 3.5264 45.1836 3.43514 44.8705C3.34388 44.5573 3.19396 44.3355 2.97886 44.1985C2.76376 44.0615 2.45088 43.9963 2.04023 43.9963H0V44.5051H0.169476C0.645311 44.5051 0.964707 44.6421 1.12115 44.9227C1.27759 45.2032 1.36232 45.6272 1.36232 46.2078V55.2367H9.44501V54.4734H3.57202V46.2144V46.2078Z" fill="white"/>
<path d="M18.31 50.3309C18.31 51.8313 18.0493 52.9208 17.5213 53.6123C16.9933 54.2973 16.1524 54.6431 14.9922 54.6431C14.1187 54.6431 13.4539 54.3104 12.9911 53.6449C12.5348 52.9795 12.2936 52.0466 12.2871 50.8462L12.2675 46.2144C12.2675 45.6337 12.2219 45.1901 12.1307 44.877C12.0394 44.5639 11.8895 44.342 11.6744 44.205C11.4593 44.068 11.1464 44.0028 10.7357 44.0028H8.86499V44.5117C9.34083 44.5117 9.66022 44.6487 9.81666 44.9292C9.9731 45.2097 10.0578 45.6337 10.0578 46.2144V50.3374C10.0578 53.7232 11.5896 55.4129 14.6532 55.4129C16.2502 55.4129 17.404 54.9823 18.1079 54.1277C18.8119 53.2731 19.1639 52.0075 19.1639 50.3374V44.0028H18.3165V50.3374L18.31 50.3309Z" fill="white"/>
<path d="M29.3715 53.0186L26.699 48.9152L30.5969 43.9963H29.4888L26.2036 48.1519L24.724 45.8686C24.398 45.3467 23.9939 44.9031 23.5246 44.5377C23.0553 44.1724 22.5273 43.9897 21.9472 43.9897H20.0764V44.329C20.4414 44.3746 20.8391 44.5769 21.2693 44.9422C21.6995 45.3075 22.0645 45.7251 22.3578 46.2013L24.7761 49.9329L20.5914 55.2302H21.6995L25.291 50.7027L27.0119 53.3579C27.3378 53.8798 27.7419 54.3234 28.2112 54.6887C28.6806 55.0541 29.2085 55.2367 29.7887 55.2367H31.6594V54.8975C31.2944 54.8518 30.8968 54.6496 30.4666 54.2842C30.0364 53.9189 29.6713 53.5014 29.378 53.0252L29.3715 53.0186Z" fill="white"/>
<path d="M44.7546 54.6887C44.5721 54.1864 44.4809 53.4035 44.4809 52.3402V43.9963H42.2516L38.7643 52.3597L34.6448 43.9963H32.5654V55.2367H33.4193V45.973L37.9821 55.2367H38.5427L42.2712 46.3122V52.3402C42.2712 53.6319 42.5384 54.5713 43.0794 55.1389C43.6205 55.713 44.5004 56 45.7259 56V55.576C45.2631 55.4846 44.9372 55.1911 44.7546 54.6887Z" fill="white"/>
<path d="M54.4213 54.0364C53.9911 54.3234 53.4501 54.4735 52.8048 54.4735H49.8976V49.7894H54.3236V49.0261H49.8976V44.7661H52.6353C53.3393 44.7661 53.8673 44.9292 54.2258 45.2619C54.5843 45.5881 54.7603 46.11 54.7603 46.8146H55.2687V45.3663C55.2687 44.4595 54.7864 44.0028 53.8216 44.0028H46.3191V44.5117H46.4886C46.9644 44.5117 47.2838 44.6487 47.4402 44.9292C47.5967 45.2097 47.6814 45.6337 47.6814 46.2144V55.2433H53.9781C54.4083 55.2433 54.7277 55.1454 54.9298 54.9562C55.1318 54.7605 55.3078 54.4604 55.4577 54.0559L55.9531 52.712L55.4968 52.5424C55.2166 53.26 54.8581 53.7624 54.4278 54.0494L54.4213 54.0364Z" fill="white"/>
<path d="M65.9911 43.9963H57.9932C57.0285 43.9963 56.5461 44.4529 56.5461 45.3597V46.808H57.0546C57.0546 46.0839 57.224 45.562 57.5565 45.2423C57.8889 44.9226 58.3778 44.7661 59.0101 44.7661H60.2159V55.2432H62.4256V44.7661H65.9846V44.0028L65.9911 43.9963Z" fill="white"/>
<path d="M74.6213 53.0904L70.8081 43.9963H70.0455L65.0264 55.2367H65.9129L67.3078 52.1379H71.8315L72.2226 53.0904C72.5876 53.9646 73.0569 54.5517 73.637 54.8518C74.2172 55.1519 74.8625 55.302 75.5795 55.302C75.9184 55.302 76.1922 55.2759 76.3943 55.2172V54.7931C75.6447 54.7148 75.058 54.1473 74.6213 53.0904ZM67.6598 51.3681L69.6348 46.9254L71.5055 51.3681H67.6598Z" fill="white"/>
<path d="M79.7253 46.2078C79.7253 45.6272 79.6797 45.1836 79.5885 44.8705C79.4972 44.5573 79.3473 44.3355 79.1322 44.1985C78.9171 44.0615 78.6042 43.9963 78.1935 43.9963H76.1533V44.5051H76.3228C76.7986 44.5051 77.118 44.6421 77.2745 44.9227C77.4309 45.2032 77.5156 45.6272 77.5156 46.2078V55.2367H85.5983V54.4734H79.7253V46.2144V46.2078Z" fill="white"/>
<path d="M89.1311 46.2078C89.1311 45.6272 89.0855 45.1836 88.9942 44.8705C88.903 44.5573 88.7531 44.3355 88.5379 44.1985C88.3228 44.0615 88.01 43.9963 87.5993 43.9963H85.5591V44.5051H85.7286C86.2044 44.5051 86.5238 44.6421 86.6802 44.9227C86.8367 45.2032 86.9214 45.6272 86.9214 46.2078V55.2367H95.0041V54.4734H89.1311V46.2144V46.2078Z" fill="white"/>
<path d="M98.5761 54.3038C98.4197 54.0233 98.3349 53.5992 98.3349 53.0186V43.9897H96.1252V53.0186C96.1252 53.6123 96.1709 54.0624 96.2621 54.3756C96.3534 54.6887 96.5033 54.9105 96.7184 55.041C96.9335 55.1715 97.2464 55.2367 97.657 55.2367H99.6973V54.7279H99.5278C99.052 54.7279 98.7326 54.5909 98.5761 54.3103V54.3038Z" fill="white"/>
<path d="M110.407 52.3728C109.996 53.1556 109.462 53.7558 108.797 54.1799C108.132 54.5974 107.402 54.8127 106.613 54.8127C105.342 54.8127 104.403 54.3364 103.791 53.384C103.178 52.4315 102.872 51.2311 102.872 49.7894C102.872 47.8453 103.204 46.4688 103.875 45.6533C104.547 44.8378 105.459 44.4268 106.613 44.4268C107.545 44.4268 108.295 44.7008 108.875 45.2423C109.455 45.7838 109.853 46.5797 110.068 47.6235H110.576C110.576 46.932 110.55 46.3905 110.511 46.0056C110.465 45.6207 110.342 45.2945 110.14 45.0335C109.788 44.6226 109.279 44.2898 108.608 44.0354C107.936 43.781 107.102 43.6505 106.105 43.6505C105.049 43.6505 104.091 43.918 103.237 44.4595C102.383 45.0009 101.705 45.7381 101.222 46.671C100.734 47.6104 100.492 48.6412 100.492 49.7763C100.492 50.9115 100.714 51.8639 101.157 52.7381C101.601 53.6123 102.246 54.3038 103.087 54.8062C103.934 55.3085 104.938 55.5629 106.105 55.5629C107.271 55.5629 108.262 55.3411 109.031 54.9105C109.801 54.4734 110.459 53.7754 111.006 52.8229L110.413 52.3663L110.407 52.3728Z" fill="white"/>
</g>
<defs>
<clipPath id="clip0_140_346">
<rect width="111" height="56" fill="white"/>
</clipPath>
</defs>
</svg>
