<svg width="2414" height="1438" viewBox="0 0 2414 1438" fill="none" xmlns="http://www.w3.org/2000/svg">
<g clip-path="url(#clip0_149_175)">
<g opacity="0.37">
<path d="M-91.2384 1257.83C168.903 1261.49 416.248 1207.51 613.458 1104.04C779.623 1016.86 908.122 897.165 1051.32 790.134C1194.52 683.103 1395.16 524.251 1601.21 490.585C2025.28 421.292 2279.86 652.837 2481.45 885.586" stroke="#B59A30" stroke-miterlimit="10"/>
<path d="M2488.34 872.185C2296.86 641.126 2043.61 416.38 1628.2 473.012C1418.66 501.576 1212.25 649.732 1062.2 753.347C912.166 856.964 778.773 976.085 605.601 1059.4C380.377 1167.75 95.3611 1210.03 -191.953 1187.11" stroke="#B59A30" stroke-miterlimit="10"/>
<path d="M2495.23 858.783C2313.86 629.413 2061.47 410.964 1655.18 455.434C1441.94 478.772 1229.96 616.352 1073.08 716.555C916.206 816.757 777.325 934.823 597.747 1014.75C343.996 1127.7 21.8275 1158.56 -292.669 1116.39" stroke="#B59A30" stroke-miterlimit="10"/>
<path d="M2502.11 845.381C2330.86 617.701 2078.91 405.031 1682.16 437.862C1465.02 455.831 1247.68 582.98 1083.96 679.768C920.25 776.556 775.454 893.182 589.896 970.113C307.192 1087.32 -51.7093 1107.11 -393.377 1045.67" stroke="#B59A30" stroke-miterlimit="10"/>
<path d="M2509 831.983C2347.86 605.992 2095.95 398.572 1709.14 420.292C1487.9 432.717 1265.39 549.61 1094.84 642.983C924.288 736.357 773.265 851.238 582.034 925.473C270.007 1046.61 -125.251 1055.65 -494.094 974.952" stroke="#B59A30" stroke-miterlimit="10"/>
<path d="M2515.89 818.58C2364.86 594.281 2112.67 391.573 1736.12 402.718C1510.6 409.392 1283.11 516.235 1105.72 606.198C928.326 696.158 770.846 809.044 574.177 880.835C232.512 1005.56 -198.792 1004.19 -594.808 904.237" stroke="#B59A30" stroke-miterlimit="10"/>
<path d="M2522.77 805.179C2381.86 582.57 2129.11 384.044 1763.1 385.142C1533.15 385.834 1300.82 482.858 1116.6 569.408C932.371 655.953 768.27 766.643 566.327 836.191C194.743 964.163 -272.321 952.725 -695.52 833.516" stroke="#B59A30" stroke-miterlimit="10"/>
<path d="M2529.66 791.776C2398.86 570.856 2145.34 375.994 1790.08 367.568C1555.58 362.006 1318.54 449.483 1127.48 532.619C936.416 615.751 765.566 724.075 558.467 791.547C156.718 922.436 -345.866 901.26 -796.237 762.795" stroke="#B59A30" stroke-miterlimit="10"/>
<path d="M2536.55 778.375C2415.86 559.145 2161.42 367.433 1817.07 349.996C1577.92 337.885 1336.26 416.111 1138.36 495.833C940.46 575.551 762.775 681.372 550.615 746.911C118.488 880.396 -419.398 849.805 -896.946 692.084" stroke="#B59A30" stroke-miterlimit="10"/>
<path d="M2543.43 764.973C2432.86 547.433 2177.43 358.391 1844.05 332.421C1600.2 313.426 1353.97 382.74 1149.24 459.044C944.498 535.347 759.913 638.548 542.758 702.268C80.0558 838.034 -492.934 798.344 -997.659 621.365" stroke="#B59A30" stroke-miterlimit="10"/>
<path d="M2550.32 751.57C2449.86 535.72 2193.43 348.89 1871.03 314.849C1622.48 288.602 1371.69 349.368 1160.11 422.255C948.537 495.144 757.009 595.623 534.903 657.626C41.461 795.371 -566.474 746.881 -1098.37 550.647" stroke="#B59A30" stroke-miterlimit="10"/>
<path d="M2557.21 738.168C2466.86 524.012 2209.5 338.973 1898.01 297.271C1644.81 263.375 1389.41 315.988 1170.99 385.463C952.579 454.938 754.071 552.609 527.045 612.979C2.70693 752.414 -640.012 695.415 -1199.09 479.922" stroke="#B59A30" stroke-miterlimit="10"/>
<path d="M2564.09 724.767C2483.87 512.301 2225.73 328.676 1925 279.699C1667.23 237.722 1407.13 282.616 1181.87 348.677C956.622 414.737 751.11 509.526 519.193 568.339C-36.1745 709.178 -713.548 643.954 -1299.8 409.206" stroke="#B59A30" stroke-miterlimit="10"/>
<path d="M2570.98 711.364C2500.86 500.588 2242.17 318.041 1951.97 262.125C1689.82 211.612 1424.84 249.241 1192.75 311.887C960.661 374.534 748.136 466.373 511.337 523.696C-75.1803 665.674 -787.085 592.496 -1400.51 338.487" stroke="#B59A30" stroke-miterlimit="10"/>
<path d="M2577.86 697.966C2517.86 488.876 2258.93 307.125 1978.95 244.551C1712.65 185.035 1442.56 215.867 1203.63 275.099C964.699 334.331 745.152 423.168 503.476 479.052C-114.303 621.915 -860.631 541.031 -1501.23 267.767" stroke="#B59A30" stroke-miterlimit="10"/>
<path d="M2584.75 684.565C2534.86 477.167 2276.06 295.98 2005.94 226.979C1735.81 157.975 1460.27 182.493 1214.51 238.312C968.75 294.132 742.177 379.913 495.625 434.416C-153.512 577.914 -934.166 489.574 -1601.94 197.053" stroke="#B59A30" stroke-miterlimit="10"/>
</g>
</g>
<defs>
<clipPath id="clip0_149_175">
<rect width="2414" height="1438" fill="white"/>
</clipPath>
</defs>
</svg>
