<svg width="20" height="19" viewBox="0 0 20 19" fill="none" xmlns="http://www.w3.org/2000/svg">
<path d="M15.875 3.88729C15.111 3.15415 14.201 2.57286 13.1981 2.17733C12.1951 1.7818 11.1193 1.57995 10.0334 1.58354C5.48337 1.58354 1.77504 5.10646 1.77504 9.42896C1.77504 10.8144 2.15837 12.1602 2.87504 13.3477L1.70837 17.4169L6.08337 16.3244C7.29171 16.9498 8.65004 17.2823 10.0334 17.2823C14.5834 17.2823 18.2917 13.7594 18.2917 9.43688C18.2917 7.33896 17.4334 5.36771 15.875 3.88729ZM10.0334 15.9523C8.80004 15.9523 7.59171 15.6356 6.53337 15.0419L6.28337 14.8994L3.68337 15.5485L4.37504 13.1419L4.20837 12.8965C3.52316 11.857 3.15932 10.6554 3.15837 9.42896C3.15837 5.83479 6.24171 2.90563 10.025 2.90563C11.8584 2.90563 13.5834 3.58646 14.875 4.82146C15.5146 5.42626 16.0215 6.14565 16.3662 6.93792C16.7109 7.73019 16.8867 8.57959 16.8834 9.43688C16.9 13.031 13.8167 15.9523 10.0334 15.9523ZM13.8 11.0756C13.5917 10.9806 12.575 10.5056 12.3917 10.4344C12.2 10.371 12.0667 10.3394 11.925 10.5294C11.7834 10.7273 11.3917 11.1706 11.275 11.2973C11.1584 11.4319 11.0334 11.4477 10.825 11.3448C10.6167 11.2498 9.95004 11.036 9.16671 10.371C8.55004 9.84854 8.14171 9.20729 8.01671 9.00938C7.90004 8.81146 8.00004 8.70854 8.10837 8.60563C8.20004 8.51854 8.31671 8.37604 8.41671 8.26521C8.51671 8.15438 8.55837 8.06729 8.62504 7.94063C8.69171 7.80604 8.65837 7.69521 8.60837 7.60021C8.55837 7.50521 8.14171 6.53938 7.97504 6.14354C7.80837 5.76354 7.63337 5.81104 7.50837 5.80313H7.10837C6.96671 5.80313 6.75004 5.85063 6.55837 6.04854C6.37504 6.24646 5.84171 6.72146 5.84171 7.68729C5.84171 8.65313 6.58337 9.58729 6.68337 9.71396C6.78337 9.84854 8.14171 11.8277 10.2084 12.6748C10.7 12.8806 11.0834 12.9994 11.3834 13.0865C11.875 13.2369 12.325 13.2131 12.6834 13.1656C13.0834 13.1102 13.9084 12.6906 14.075 12.2315C14.25 11.7723 14.25 11.3844 14.1917 11.2973C14.1334 11.2102 14.0084 11.1706 13.8 11.0756Z" fill="white"/>
</svg>
