<svg width="17" height="18" viewBox="0 0 17 18" fill="none" xmlns="http://www.w3.org/2000/svg">
<g clip-path="url(#clip0_104_150)">
<path d="M8.49996 3C9.10558 3 9.72679 3.0165 10.3289 3.0435L11.04 3.0795L11.7208 3.12225L12.3583 3.168L12.9405 3.216C13.5725 3.26692 14.1672 3.55233 14.6199 4.02195C15.0727 4.49158 15.3544 5.1153 15.4154 5.78325L15.4438 6.102L15.4969 6.7845C15.5465 7.49175 15.5833 8.26275 15.5833 9C15.5833 9.73725 15.5465 10.5083 15.4969 11.2155L15.4438 11.898L15.4154 12.2168C15.3543 12.8848 15.0725 13.5086 14.6197 13.9783C14.1668 14.4479 13.5719 14.7333 12.9398 14.784L12.359 14.8313L11.7215 14.8778L11.04 14.9205L10.3289 14.9565C9.71959 14.9844 9.10982 14.9989 8.49996 15C7.8901 14.9989 7.28033 14.9844 6.67104 14.9565L5.95988 14.9205L5.27917 14.8778L4.64167 14.8313L4.05942 14.784C3.42745 14.7331 2.83273 14.4477 2.37999 13.978C1.92726 13.5084 1.64555 12.8847 1.5845 12.2168L1.55617 11.898L1.50304 11.2155C1.44909 10.4783 1.42027 9.73936 1.41663 9C1.41663 8.26275 1.45346 7.49175 1.50304 6.7845L1.55617 6.102L1.5845 5.78325C1.64553 5.11541 1.92713 4.49179 2.37972 4.02218C2.83231 3.55257 3.42687 3.26709 4.05871 3.216L4.64025 3.168L5.27775 3.12225L5.95917 3.0795L6.67033 3.0435C7.27986 3.01555 7.88986 3.00104 8.49996 3ZM8.49996 4.5C7.91558 4.5 7.31421 4.5165 6.72913 4.542L6.03638 4.57725L5.37125 4.6185L4.7465 4.6635L4.17417 4.71075C3.87326 4.73305 3.58957 4.8676 3.37351 5.09046C3.15745 5.31333 3.02301 5.61009 2.99408 5.928C2.91121 6.83475 2.83329 7.9635 2.83329 9C2.83329 10.0365 2.91121 11.1653 2.99408 12.072C3.05429 12.726 3.54446 13.2345 4.17417 13.2893L4.7465 13.3358L5.37125 13.3808L6.03638 13.4228L6.72913 13.458C7.31421 13.4835 7.91558 13.5 8.49996 13.5C9.08433 13.5 9.68571 13.4835 10.2708 13.458L10.9635 13.4228L11.6287 13.3815L12.2534 13.3365L12.8258 13.2893C13.1267 13.2669 13.4103 13.1324 13.6264 12.9095C13.8425 12.6867 13.9769 12.3899 14.0058 12.072C14.0887 11.1653 14.1666 10.0365 14.1666 9C14.1666 7.9635 14.0887 6.83475 14.0058 5.928C13.9769 5.61009 13.8425 5.31333 13.6264 5.09046C13.4103 4.8676 13.1267 4.73305 12.8258 4.71075L12.2534 4.66425L11.6287 4.61925L10.9635 4.57725L10.2708 4.542C9.68085 4.51519 9.09045 4.50119 8.49996 4.5ZM7.08329 7.18125C7.08325 7.10795 7.10011 7.03574 7.13243 6.97092C7.16474 6.90609 7.21152 6.8506 7.2687 6.80928C7.32588 6.76795 7.39173 6.74204 7.46052 6.73381C7.52931 6.72557 7.59896 6.73524 7.66342 6.762L7.72079 6.792L10.6958 8.61C10.755 8.64619 10.8052 8.69699 10.8419 8.75808C10.8786 8.81917 10.9009 8.88874 10.9068 8.96089C10.9127 9.03304 10.9021 9.10563 10.8758 9.1725C10.8496 9.23937 10.8085 9.29855 10.756 9.345L10.6958 9.39L7.72079 11.2088C7.66084 11.2455 7.59331 11.2662 7.52408 11.269C7.45486 11.2718 7.38603 11.2567 7.3236 11.2249C7.26117 11.1931 7.20702 11.1456 7.16588 11.0866C7.12474 11.0276 7.09784 10.9588 7.08754 10.8863L7.08329 10.8188V7.18125Z" fill="white"/>
</g>
<defs>
<clipPath id="clip0_104_150">
<rect width="17" height="18" fill="white"/>
</clipPath>
</defs>
</svg>
