<svg width="17" height="18" viewBox="0 0 17 18" fill="none" xmlns="http://www.w3.org/2000/svg">
<path d="M5.52496 1.5H11.475C13.7416 1.5 15.5833 3.45 15.5833 5.85V12.15C15.5833 13.3037 15.1505 14.4101 14.38 15.2259C13.6095 16.0417 12.5646 16.5 11.475 16.5H5.52496C3.25829 16.5 1.41663 14.55 1.41663 12.15V5.85C1.41663 4.69631 1.84947 3.58987 2.61993 2.77409C3.39039 1.9583 4.43536 1.5 5.52496 1.5ZM5.38329 3C4.70699 3 4.05839 3.28446 3.58017 3.79081C3.10195 4.29716 2.83329 4.98392 2.83329 5.7V12.3C2.83329 13.7925 3.97371 15 5.38329 15H11.6166C12.2929 15 12.9415 14.7155 13.4197 14.2092C13.898 13.7028 14.1666 13.0161 14.1666 12.3V5.7C14.1666 4.2075 13.0262 3 11.6166 3H5.38329ZM12.2187 4.125C12.4535 4.125 12.6787 4.22377 12.8448 4.39959C13.0108 4.5754 13.1041 4.81386 13.1041 5.0625C13.1041 5.31114 13.0108 5.5496 12.8448 5.72541C12.6787 5.90123 12.4535 6 12.2187 6C11.9839 6 11.7587 5.90123 11.5926 5.72541C11.4266 5.5496 11.3333 5.31114 11.3333 5.0625C11.3333 4.81386 11.4266 4.5754 11.5926 4.39959C11.7587 4.22377 11.9839 4.125 12.2187 4.125ZM8.49996 5.25C9.43927 5.25 10.3401 5.64509 11.0043 6.34835C11.6685 7.05161 12.0416 8.00544 12.0416 9C12.0416 9.99456 11.6685 10.9484 11.0043 11.6516C10.3401 12.3549 9.43927 12.75 8.49996 12.75C7.56065 12.75 6.65981 12.3549 5.99562 11.6516C5.33143 10.9484 4.95829 9.99456 4.95829 9C4.95829 8.00544 5.33143 7.05161 5.99562 6.34835C6.65981 5.64509 7.56065 5.25 8.49996 5.25ZM8.49996 6.75C7.93637 6.75 7.39587 6.98705 6.99736 7.40901C6.59884 7.83097 6.37496 8.40326 6.37496 9C6.37496 9.59674 6.59884 10.169 6.99736 10.591C7.39587 11.0129 7.93637 11.25 8.49996 11.25C9.06354 11.25 9.60405 11.0129 10.0026 10.591C10.4011 10.169 10.625 9.59674 10.625 9C10.625 8.40326 10.4011 7.83097 10.0026 7.40901C9.60405 6.98705 9.06354 6.75 8.49996 6.75Z" fill="white"/>
</svg>
